<svg width="166.55" height="44" viewBox="0 0 166.55 44" fill="none" xmlns="http://www.w3.org/2000/svg">
<g id="size=md">
<g id="logo">
<path id="Union" d="M12.3662 34.3155C14.6203 34.3155 16.4482 36.1248 16.4482 38.3565C16.4482 40.5882 14.6203 42.3975 12.3662 42.3975C10.1123 42.3974 8.28522 40.588 8.28516 38.3565C8.28516 36.125 10.1123 34.3157 12.3662 34.3155ZM29.5986 34.3155C31.8527 34.3155 33.6807 36.1248 33.6807 38.3565C33.6806 40.5882 31.8527 42.3975 29.5986 42.3975C27.3447 42.3974 25.5176 40.588 25.5176 38.3565C25.5176 36.125 27.3447 34.3157 29.5986 34.3155ZM19.5977 2.00008C20.1206 1.99635 20.6362 2.12155 21.0986 2.36336C21.5611 2.60519 21.9563 2.95606 22.248 3.38582C22.5398 3.81563 22.7191 4.31093 22.7705 4.82625C22.8219 5.34145 22.7431 5.86105 22.542 6.33895C22.3409 6.81696 22.0239 7.23874 21.6182 7.56551C22.825 8.73679 23.5573 10.3047 23.6768 11.9737C24.7977 13.0542 25.6243 14.3982 26.0801 15.88C28.4745 16.1943 34.2432 17.7303 34.2432 25.336C34.2432 25.6645 34.3748 25.9797 34.6094 26.212C34.8441 26.4444 35.1632 26.5753 35.4951 26.5753C35.8269 26.5752 36.1453 26.4443 36.3799 26.212C36.6145 25.9797 36.746 25.6645 36.7461 25.336C36.7461 14.8119 27.6671 13.5094 25.5176 13.3477V12.9171C25.5176 11.4477 26.1078 10.0381 27.1572 8.9991C28.2067 7.96024 29.6302 7.37703 31.1143 7.37703C33.7129 7.37709 36.2059 8.3961 38.0469 10.212C39.8879 12.028 40.9269 14.4926 40.9365 17.0655V23.3516C40.9365 25.772 39.9697 28.0942 38.2471 29.8116C36.5243 31.5291 34.185 32.5029 31.7402 32.5196H21.0469V32.4386C20.8974 32.4673 20.745 32.4823 20.5928 32.4835H17.8721C17.2707 32.4835 16.6938 32.2472 16.2686 31.8263C15.8433 31.4053 15.6045 30.8337 15.6045 30.2384C15.6046 29.6432 15.8435 29.0724 16.2686 28.6514C16.6938 28.2305 17.2707 27.9942 17.8721 27.9942H20.5928C20.745 27.9954 20.8974 28.0094 21.0469 28.0382V23.9981C21.0445 23.6298 20.8949 23.2772 20.6318 23.0167C20.3687 22.7562 20.0127 22.6079 19.6406 22.6056H8.84766C8.47555 22.6079 8.11957 22.7562 7.85645 23.0167C7.59339 23.2772 7.44378 23.6298 7.44141 23.9981V25.794C7.72301 26.0031 7.95195 26.2743 8.10938 26.586C8.26673 26.8977 8.34863 27.2415 8.34863 27.5899V30.2833C8.34863 30.8787 8.1098 31.4502 7.68457 31.8712C7.25936 32.2921 6.68232 32.5284 6.08105 32.5284C5.47998 32.5283 4.90363 32.2919 4.47852 31.8712C4.05329 31.4502 3.81348 30.8787 3.81348 30.2833V27.5899C3.8141 27.0269 4.02932 26.4842 4.41602 26.0714C4.80273 25.6585 5.33335 25.4053 5.90039 25.3624C4.72801 24.5507 3.76427 23.4781 3.08691 22.2306C2.40955 20.9829 2.03698 19.5948 2 18.1788C2.01474 17.0176 2.26334 15.871 2.73047 14.8057C3.19763 13.7404 3.87379 12.7773 4.7207 11.9737C4.84018 10.3048 5.57254 8.73678 6.7793 7.56551C6.3736 7.23876 6.05658 6.81692 5.85547 6.33895C5.65441 5.86107 5.5756 5.34142 5.62695 4.82625C5.67838 4.31093 5.85867 3.81563 6.15039 3.38582C6.44204 2.95627 6.83658 2.60512 7.29883 2.36336C7.7612 2.12158 8.27692 1.99638 8.7998 2.00008C9.32282 2.00385 9.83701 2.13637 10.2959 2.38485C10.7547 2.63328 11.1443 2.99006 11.4297 3.42391C11.715 3.85784 11.8878 4.3552 11.9316 4.87117C13.4272 4.56488 14.9703 4.56491 16.4658 4.87117C16.5097 4.3552 16.6824 3.85784 16.9678 3.42391C17.2531 2.99007 17.6428 2.63329 18.1016 2.38485C18.5604 2.13637 19.0746 2.00385 19.5977 2.00008ZM10.6074 15.4581C10.1263 15.4581 9.6644 15.6477 9.32422 15.9845C8.98424 16.3212 8.79301 16.7779 8.79297 17.254C8.79297 17.7303 8.98404 18.1877 9.32422 18.5245C9.6644 18.8613 10.1264 19.0499 10.6074 19.0499H12.3125C12.7163 19.05 13.1091 18.9166 13.4277 18.671C13.7462 18.4254 13.9733 18.0819 14.0723 17.6944C14.1399 17.4294 14.1447 17.1524 14.0879 16.8848C14.0311 16.6173 13.9138 16.3661 13.7441 16.1505C13.5745 15.9349 13.3573 15.7606 13.1094 15.6407C12.8613 15.5208 12.5886 15.458 12.3125 15.4581H10.6074ZM9.73535 11.2784C9.49883 11.2323 9.25362 11.2566 9.03125 11.3487C8.80885 11.4409 8.61918 11.5968 8.48633 11.796C8.35351 11.9952 8.2834 12.2292 8.28516 12.4679C8.28753 12.7839 8.41589 13.0862 8.6416 13.3097C8.86721 13.533 9.17218 13.6597 9.49121 13.6622C9.73231 13.664 9.96869 13.5945 10.1699 13.463C10.3711 13.3315 10.529 13.1441 10.6221 12.9239C10.7152 12.7037 10.7399 12.4608 10.6934 12.2266C10.6468 11.9925 10.5307 11.7773 10.3604 11.6085C10.1898 11.4397 9.97195 11.3245 9.73535 11.2784ZM14.0908 11.2784C13.8543 11.3246 13.6373 11.4397 13.4668 11.6085C13.2963 11.7773 13.1804 11.9924 13.1338 12.2266C13.0872 12.4609 13.112 12.7037 13.2051 12.9239C13.2982 13.144 13.4552 13.3315 13.6562 13.463C13.8575 13.5945 14.0938 13.664 14.335 13.6622C14.6541 13.6598 14.9599 13.5331 15.1855 13.3097C15.4111 13.0862 15.5386 12.7837 15.541 12.4679C15.5428 12.2292 15.4727 11.9952 15.3398 11.796C15.207 11.5969 15.0173 11.4409 14.7949 11.3487C14.5726 11.2566 14.3273 11.2323 14.0908 11.2784Z" fill="#F9502E"/>
</g>
<g id="img/logo-text">
<g id="MOVING">
<path id="Vector" d="M55.36 31.74Q54.09 31.74 53.42 31.06Q52.75 30.37 52.75 29.11V14.89Q52.75 13.63 53.48 12.94Q54.2 12.26 55.52 12.26Q56.62 12.26 57.27 12.69Q57.91 13.12 58.45 14.08L63.72 23.38H62.75L68.02 14.08Q68.55 13.12 69.21 12.69Q69.87 12.26 70.95 12.26Q72.21 12.26 72.9 12.94Q73.58 13.63 73.58 14.89V29.11Q73.58 30.37 72.91 31.06Q72.24 31.74 70.97 31.74Q69.71 31.74 69.04 31.06Q68.37 30.37 68.37 29.11V21.66H68.9L65.3 27.63Q64.9 28.3 64.4 28.64Q63.9 28.97 63.13 28.97Q62.35 28.97 61.85 28.64Q61.35 28.3 60.95 27.63L57.35 21.66H57.96V29.11Q57.96 30.37 57.29 31.06Q56.62 31.74 55.36 31.74ZM86.19 31.8Q83.26 31.8 81.01 30.56Q78.77 29.32 77.52 27.11Q76.27 24.89 76.27 21.99Q76.27 19.78 76.98 17.98Q77.69 16.18 79.01 14.89Q80.33 13.6 82.15 12.9Q83.98 12.2 86.19 12.2Q89.14 12.2 91.37 13.43Q93.6 14.65 94.85 16.85Q96.1 19.06 96.1 21.99Q96.1 24.19 95.39 25.99Q94.68 27.79 93.36 29.1Q92.05 30.4 90.22 31.1Q88.39 31.8 86.19 31.8ZM86.19 26.99Q87.42 26.99 88.3 26.38Q89.17 25.78 89.64 24.66Q90.11 23.55 90.11 21.99Q90.11 19.65 89.06 18.33Q88.01 17.01 86.19 17.01Q84.98 17.01 84.09 17.61Q83.2 18.2 82.73 19.3Q82.26 20.4 82.26 21.99Q82.26 24.35 83.31 25.67Q84.36 26.99 86.19 26.99ZM107.42 31.74Q106.26 31.74 105.53 31.25Q104.79 30.75 104.3 29.67L98.07 16.13Q97.56 15 97.74 14.12Q97.93 13.25 98.62 12.75Q99.3 12.26 100.32 12.26Q101.61 12.26 102.27 12.82Q102.93 13.39 103.39 14.49L108.36 26.02H106.67L111.67 14.46Q112.12 13.36 112.78 12.81Q113.44 12.26 114.65 12.26Q115.62 12.26 116.26 12.75Q116.91 13.25 117.08 14.12Q117.26 15 116.75 16.13L110.51 29.67Q110.03 30.75 109.32 31.25Q108.6 31.74 107.42 31.74ZM122.04 31.74Q120.64 31.74 119.89 30.98Q119.14 30.21 119.14 28.79V15.21Q119.14 13.79 119.89 13.02Q120.64 12.26 122.04 12.26Q123.44 12.26 124.18 13.02Q124.92 13.79 124.92 15.21V28.79Q124.92 30.21 124.19 30.98Q123.47 31.74 122.04 31.74ZM130.67 31.74Q129.35 31.74 128.67 31.04Q127.98 30.35 127.98 29.03V15.11Q127.98 13.73 128.67 13Q129.35 12.26 130.51 12.26Q131.48 12.26 132.05 12.65Q132.63 13.04 133.33 13.9L140.86 23.01H140.05V14.97Q140.05 13.65 140.74 12.96Q141.42 12.26 142.74 12.26Q144.06 12.26 144.74 12.96Q145.43 13.65 145.43 14.97V29.16Q145.43 30.32 144.79 31.03Q144.16 31.74 143.09 31.74Q142.01 31.74 141.39 31.35Q140.78 30.96 140.08 30.1L132.55 20.99H133.36V29.03Q133.36 30.35 132.67 31.04Q131.99 31.74 130.67 31.74ZM158.49 31.8Q155.16 31.8 152.83 30.56Q150.51 29.32 149.28 27.15Q148.06 24.97 148.06 22.12Q148.06 19.86 148.8 18.04Q149.54 16.21 150.95 14.9Q152.36 13.6 154.39 12.9Q156.42 12.2 159 12.2Q160.26 12.2 161.58 12.4Q162.9 12.61 164.27 13.2Q165.07 13.55 165.4 14.21Q165.72 14.86 165.64 15.62Q165.56 16.37 165.14 16.99Q164.72 17.61 164.01 17.85Q163.3 18.09 162.39 17.71Q161.71 17.44 160.84 17.28Q159.97 17.12 159.05 17.12Q157.36 17.12 156.24 17.69Q155.13 18.25 154.59 19.37Q154.05 20.48 154.05 22.12Q154.05 24.54 155.28 25.76Q156.5 26.99 158.84 26.99Q159.51 26.99 160.37 26.85Q161.23 26.72 162.14 26.45L161.12 28.52V24.54H159.86Q158.78 24.54 158.21 24.03Q157.63 23.52 157.63 22.55Q157.63 21.58 158.21 21.07Q158.78 20.56 159.86 20.56H163.57Q164.67 20.56 165.24 21.13Q165.8 21.69 165.8 22.79V28.41Q165.8 29.35 165.41 30Q165.02 30.64 164.16 30.94Q162.84 31.37 161.41 31.58Q159.97 31.8 158.49 31.8Z" fill="#F9502E"/>
</g>
</g>
</g>
</svg>
